<svg data-v-fde0c5aa="" xmlns="http://www.w3.org/2000/svg" viewBox="0 0 300 300" class="iconAbove"><!----><defs data-v-fde0c5aa=""><!----></defs><rect data-v-fde0c5aa="" fill="transparent" x="0" y="0" width="300px" height="300px" class="logo-background-square"></rect><defs data-v-fde0c5aa=""><!----></defs><g data-v-fde0c5aa="" id="ed4c0e53-0ebd-45cd-9310-cc8269849b98" fill="#000000" transform="matrix(1.9086435565010516,0,0,1.9086435565010516,19.656444146178128,170.2514541842253)"><path d="M6.02 4.31C5.22 3.61 4.41 3.40 3.33 3.40C2.07 3.40 0.42 3.96 0.42 5.56C0.42 7.13 1.97 7.60 3.28 7.70C4.26 7.76 4.65 7.95 4.65 8.43C4.65 8.93 4.05 9.27 3.40 9.25C2.63 9.24 1.51 8.83 1.02 8.29L0.18 9.51C1.19 10.56 2.28 10.74 3.37 10.74C5.35 10.74 6.34 9.69 6.34 8.47C6.34 6.64 4.69 6.34 3.39 6.26C2.51 6.20 2.10 5.95 2.10 5.50C2.10 5.07 2.55 4.82 3.36 4.82C4.02 4.82 4.58 4.97 5.07 5.43ZM11.26 9.02C10.09 9.02 9.30 8.13 9.30 7.06C9.30 5.98 10.02 5.10 11.26 5.10C12.49 5.10 13.22 5.98 13.22 7.06C13.22 8.13 12.42 9.02 11.26 9.02ZM9.14 13.38L9.14 9.69C9.63 10.44 10.71 10.67 11.44 10.67C13.65 10.67 14.92 9.07 14.92 7.06C14.92 5.03 13.51 3.44 11.38 3.44C10.60 3.44 9.67 3.78 9.14 4.55L9.03 3.60L7.43 3.60L7.43 13.38ZM19.43 3.46C17.23 3.46 15.86 5.08 15.86 7.06C15.86 9.04 17.21 10.65 19.45 10.65C21.69 10.65 23.04 9.04 23.04 7.06C23.04 5.08 21.63 3.46 19.43 3.46ZM19.45 5.01C20.59 5.01 21.32 6.02 21.32 7.06C21.32 8.11 20.69 9.09 19.45 9.09C18.20 9.09 17.57 8.11 17.57 7.06C17.57 6.02 18.21 5.01 19.45 5.01ZM24.92 1.83L24.92 3.61L23.63 3.61L23.63 5.08L24.92 5.08L24.92 8.06C24.92 9.79 25.90 10.64 27.40 10.58C27.92 10.57 28.32 10.49 28.81 10.29L28.34 8.83C28.08 8.96 27.78 9.04 27.51 9.04C26.98 9.04 26.61 8.72 26.61 8.06L26.61 5.08L28.53 5.08L28.53 3.61L26.63 3.61L26.63 1.65ZM31.51 3.57L31.51 10.50L29.81 10.50L29.81 3.57ZM29.65 1.65C29.65 2.98 31.67 2.98 31.67 1.65C31.67 0.32 29.65 0.32 29.65 1.65ZM35.32 10.50L35.32 5.19L37.35 5.19L37.35 3.70L35.32 3.70L35.32 3.23C35.32 2.39 35.77 2.00 36.36 2.00C36.71 2.00 37.04 2.13 37.41 2.37L38.04 1.09C37.48 0.73 36.85 0.53 36.25 0.53C34.86 0.53 33.61 1.39 33.61 3.23L33.61 3.70L32.33 3.70L32.33 5.19L33.61 5.19L33.61 10.50ZM43.76 3.60L42.50 6.62L41.79 8.53L41.13 6.58L40.08 3.60L38.09 3.60L40.85 10.39L39.56 13.38L41.44 13.38L45.65 3.60ZM48.38 3.54C48.40 2.66 49.39 2.17 50.36 2.17C51.62 2.17 52.58 2.67 52.58 3.74C52.58 4.87 51.23 5.00 50.48 5.00C48.55 5.00 46.51 5.67 46.51 7.92C46.51 8.79 46.51 9.65 46.51 10.50L54.45 10.50L54.45 8.78L48.36 8.78L48.36 7.94C48.36 6.87 49.67 6.66 50.48 6.66C52.54 6.66 54.42 6.19 54.42 3.70C54.42 1.37 52.29 0.57 50.33 0.57C48.52 0.57 46.56 1.47 46.55 3.54ZM62.57 7.66C62.83 4.82 61.39 3.39 59.08 3.39C56.84 3.39 55.41 4.90 55.41 7C55.41 9.21 56.83 10.68 59.21 10.68C60.26 10.68 61.45 10.32 62.17 9.56L61.08 8.48C60.69 8.89 59.86 9.13 59.23 9.13C58.03 9.13 57.29 8.51 57.18 7.66ZM57.20 6.24C57.46 5.35 58.21 4.90 59.14 4.90C60.12 4.90 60.82 5.35 60.93 6.24ZM69.17 3.58L68.22 5.89L67.17 8.78L66.11 5.87L65.16 3.58L63.29 3.58L66.25 10.53L68.10 10.53L71.04 3.58ZM78.71 7.66C78.97 4.82 77.53 3.39 75.22 3.39C72.98 3.39 71.55 4.90 71.55 7C71.55 9.21 72.97 10.68 75.35 10.68C76.40 10.68 77.59 10.32 78.32 9.56L77.22 8.48C76.83 8.89 76.01 9.13 75.38 9.13C74.17 9.13 73.43 8.51 73.32 7.66ZM73.35 6.24C73.60 5.35 74.35 4.90 75.28 4.90C76.26 4.90 76.96 5.35 77.07 6.24ZM80.02 3.60L80.02 10.50L81.73 10.50L81.73 6.86C81.73 5.59 82.56 5.11 83.45 5.11C84.01 5.11 84.34 5.26 84.69 5.56L85.46 4.07C85.08 3.70 84.39 3.42 83.68 3.42C82.98 3.42 82.26 3.54 81.73 4.40L81.61 3.60ZM91.60 3.60L90.34 6.62L89.63 8.53L88.97 6.58L87.92 3.60L85.93 3.60L88.69 10.39L87.40 13.38L89.28 13.38L93.49 3.60ZM99.23 3.58L97.73 8.78L96.15 3.58L94.25 3.58L96.67 10.53L98.66 10.53L99.37 8.48L99.99 6.17L100.60 8.48L101.32 10.53L103.31 10.53L105.71 3.58L103.82 3.58L102.24 8.78L100.73 3.58ZM107.16 0.70L107.16 10.50L108.86 10.50L108.86 6.97C108.86 5.94 109.56 5.08 110.57 5.08C111.48 5.08 112.14 5.61 112.14 6.87L112.14 10.50L113.85 10.50L113.85 6.86C113.85 4.83 112.98 3.50 111.02 3.50C110.24 3.50 109.48 3.74 108.86 4.54L108.86 0.70ZM122.14 7.66C122.40 4.82 120.96 3.39 118.65 3.39C116.41 3.39 114.98 4.90 114.98 7C114.98 9.21 116.40 10.68 118.78 10.68C119.83 10.68 121.02 10.32 121.74 9.56L120.65 8.48C120.26 8.89 119.43 9.13 118.80 9.13C117.60 9.13 116.86 8.51 116.75 7.66ZM116.77 6.24C117.03 5.35 117.78 4.90 118.71 4.90C119.69 4.90 120.39 5.35 120.50 6.24ZM123.45 3.60L123.45 10.50L125.16 10.50L125.16 6.86C125.16 5.59 125.99 5.11 126.88 5.11C127.44 5.11 127.76 5.26 128.11 5.56L128.88 4.07C128.51 3.70 127.82 3.42 127.11 3.42C126.41 3.42 125.69 3.54 125.16 4.40L125.03 3.60ZM136.37 7.66C136.64 4.82 135.20 3.39 132.89 3.39C130.65 3.39 129.22 4.90 129.22 7C129.22 9.21 130.63 10.68 133.01 10.68C134.06 10.68 135.25 10.32 135.98 9.56L134.89 8.48C134.50 8.89 133.67 9.13 133.04 9.13C131.84 9.13 131.10 8.51 130.98 7.66ZM131.01 6.24C131.26 5.35 132.02 4.90 132.94 4.90C133.92 4.90 134.62 5.35 134.74 6.24Z"></path></g><defs data-v-fde0c5aa=""><linearGradient data-v-fde0c5aa="" gradientTransform="rotate(25)" id="7c59a1c1-4465-4952-ba39-ab7cff2e1080" x1="0%" y1="0%" x2="100%" y2="0%"><stop data-v-fde0c5aa="" offset="0%" stop-color="#563F33" stop-opacity="1"></stop><stop data-v-fde0c5aa="" offset="100%" stop-color="#A3A1A1" stop-opacity="1"></stop></linearGradient></defs><g data-v-fde0c5aa="" id="409b2ee3-7b8b-4a6e-860e-6250bad6f307" stroke="none" fill="url(#7c59a1c1-4465-4952-ba39-ab7cff2e1080)" transform="matrix(0.6055819859044013,0,0,0.6055819859044013,119.47866886333937,100.57740244088123)"><path d="M9.9 87H99V14.1H50.4v8.1h40.5v56.699H18V54.601H9.9z"></path><path d="M34.2 14.1h-8.1V6H9.9V30.3H1.8v16.2H18V22.2h16.2v16.2h-8.1v16.201h16.2V14.1z"></path></g><!----></svg>